<svg width="18" height="18" viewBox="0 0 19 19" fill="none" xmlns="http://www.w3.org/2000/svg">
<path d="M11.3245 9.49997L18.6225 2.20258C19.1264 1.69868 19.1256 0.882302 18.6217 0.378325C18.1178 -0.125577 17.3014 -0.126021 16.7974 0.377919L9.49999 7.67553L2.20215 0.377955C1.69822 -0.125985 0.881855 -0.125985 0.377922 0.377955C-0.125974 0.881857 -0.125974 1.69868 0.377922 2.20258L7.67525 9.50019L0.377958 16.7977C-0.125938 17.3016 -0.125938 18.1184 0.377958 18.6223C0.881854 19.1263 1.69822 19.1254 2.20134 18.6223L9.49962 11.3247L16.7966 18.6219C17.3014 19.1263 18.1177 19.1258 18.6216 18.6219C19.1255 18.118 19.1264 17.3016 18.6224 16.7977L11.3245 9.49997Z" fill="#FFFFFF"/>
</svg>
